name analog
datacolumns 19
datarows 50
range 0.443 0.4675
endheader
time	ground_force_vx	ground_force_vy	ground_force_vz	ground_force_px	ground_force_py	ground_force_pz	l_ground_force_vx	l_ground_force_vy	l_ground_force_vz	l_ground_force_px	l_ground_force_py	l_ground_force_pz	ground_torque_x	ground_torque_y	ground_torque_z	l_ground_torque_x	l_ground_torque_y	l_ground_torque_z
0.443	-0.0	-0.0	-0.0	-6.166321277618408	-9.460765838623049	-637.808837890625	-0.0	-0.0	-0.0	-0.0	-0.0	-0.0	-0.0	-0.0	-0.0	-0.0	-0.0	-0.0
0.4435	-0.0	-0.0	-0.0	-6.966768264770508	-9.968008995056152	-635.3624877929688	-0.0	-0.0	-0.0	-0.0	-0.0	-0.0	-0.0	-0.0	-0.0	-0.0	-0.0	-0.0
0.444	-0.0	-0.0	-0.0	-7.213788032531738	-9.71317195892334	-635.3545532226562	-0.0	-0.0	-0.0	-0.0	-0.0	-0.0	-0.0	-0.0	-0.0	-0.0	-0.0	-0.0
0.4445	-0.0	-0.0	-0.0	-7.307322025299072	-9.729095458984377	-635.6924438476562	-0.0	-0.0	-0.0	-0.0	-0.0	-0.0	-0.0	-0.0	-0.0	-0.0	-0.0	-0.0
0.445	-0.0	-0.0	-0.0	-6.521927833557129	-11.137479782104492	-639.2784423828125	-0.0	-0.0	-0.0	-0.0	-0.0	-0.0	-0.0	-0.0	-0.0	-0.0	-0.0	-0.0
0.4455	-0.0	-0.0	-0.0	-5.718844413757324	-12.203373908996582	-642.471435546875	-0.0	-0.0	-0.0	-0.0	-0.0	-0.0	-0.0	-0.0	-0.0	-0.0	-0.0	-0.0
0.446	-0.0	-0.0	-0.0	-5.440009117126465	-12.036264419555664	-644.589599609375	-0.0	-0.0	-0.0	-0.0	-0.0	-0.0	-0.0	-0.0	-0.0	-0.0	-0.0	-0.0
0.4465	-0.0	-0.0	-0.0	-4.371315002441406	-10.96303939819336	-647.0325927734375	-0.0	-0.0	-0.0	-0.0	-0.0	-0.0	-0.0	-0.0	-0.0	-0.0	-0.0	-0.0
0.447	-0.0	-0.0	-0.0	-4.101983547210693	-10.421463012695312	-648.445068359375	-0.0	-0.0	-0.0	-0.0	-0.0	-0.0	-0.0	-0.0	-0.0	-0.0	-0.0	-0.0
0.4475	-0.0	-0.0	-0.0	-3.9187514781951904	-10.87065601348877	-647.7706909179688	-0.0	-0.0	-0.0	-0.0	-0.0	-0.0	-0.0	-0.0	-0.0	-0.0	-0.0	-0.0
0.448	-0.0	-0.0	-0.0	-4.183385848999023	-11.580618858337402	-649.5042114257812	-0.0	-0.0	-0.0	-0.0	-0.0	-0.0	-0.0	-0.0	-0.0	-0.0	-0.0	-0.0
0.4485	-0.0	-0.0	-0.0	-3.656105279922485	-11.221284866333008	-650.9287719726562	-0.0	-0.0	-0.0	-0.0	-0.0	-0.0	-0.0	-0.0	-0.0	-0.0	-0.0	-0.0
0.449	-0.0	-0.0	-0.0	-3.2072198390960693	-11.150009155273438	-653.7533569335938	-0.0	-0.0	-0.0	-0.0	-0.0	-0.0	-0.0	-0.0	-0.0	-0.0	-0.0	-0.0
0.4495	-0.0	-0.0	-0.0	-2.401632070541382	-11.148345947265623	-656.5503540039062	-0.0	-0.0	-0.0	-0.0	-0.0	-0.0	-0.0	-0.0	-0.0	-0.0	-0.0	-0.0
0.45	-0.0	-0.0	-0.0	-1.6003179550170898	-11.141300201416016	-655.8659057617188	-0.0	-0.0	-0.0	-0.0	-0.0	-0.0	-0.0	-0.0	-0.0	-0.0	-0.0	-0.0
0.4505	-0.0	-0.0	-0.0	0.0038849178235977	-10.96303939819336	-653.0399169921875	-0.0	-0.0	-0.0	-0.0	-0.0	-0.0	-0.0	-0.0	-0.0	-0.0	-0.0	-0.0
0.451	-0.0	-0.0	-0.0	1.2452391386032104	-10.522327423095703	-651.2980346679688	-0.0	-0.0	-0.0	-0.0	-0.0	-0.0	-0.0	-0.0	-0.0	-0.0	-0.0	-0.0
0.4515	-0.0	-0.0	-0.0	2.49905776977539	-10.06708526611328	-649.1309814453125	-0.0	-0.0	-0.0	-0.0	-0.0	-0.0	-0.0	-0.0	-0.0	-0.0	-0.0	-0.0
0.452	-0.0	-0.0	-0.0	3.472486019134521	-9.267322540283203	-644.8977661132812	-0.0	-0.0	-0.0	-0.0	-0.0	-0.0	-0.0	-0.0	-0.0	-0.0	-0.0	-0.0
0.4525	-0.0	-0.0	-0.0	4.461586952209473	-8.291248321533203	-642.4259033203125	-0.0	-0.0	-0.0	-0.0	-0.0	-0.0	-0.0	-0.0	-0.0	-0.0	-0.0	-0.0
0.453	-0.0	-0.0	-0.0	4.821322441101074	-7.574108600616455	-637.1287841796875	-0.0	-0.0	-0.0	-0.0	-0.0	-0.0	-0.0	-0.0	-0.0	-0.0	-0.0	-0.0
0.4535	-0.0	-0.0	-0.0	6.779998779296875	-7.746781826019287	-636.415283203125	-0.0	-0.0	-0.0	-0.0	-0.0	-0.0	-0.0	-0.0	-0.0	-0.0	-0.0	-0.0
0.454	-0.0	-0.0	-0.0	6.698014259338379	-7.128627300262451	-632.1849975585938	-0.0	-0.0	-0.0	-0.0	-0.0	-0.0	-0.0	-0.0	-0.0	-0.0	-0.0	-0.0
0.4545	-0.0	-0.0	-0.0	7.762975215911865	-7.304544925689697	-629.7198486328125	-0.0	-0.0	-0.0	-0.0	-0.0	-0.0	-0.0	-0.0	-0.0	-0.0	-0.0	-0.0
0.455	-0.0	-0.0	-0.0	8.743401527404785	-7.13043212890625	-625.143798828125	-0.0	-0.0	-0.0	-0.0	-0.0	-0.0	-0.0	-0.0	-0.0	-0.0	-0.0	-0.0
0.4555	-0.0	-0.0	-0.0	8.566305160522461	-6.950775146484375	-624.7614135742188	-0.0	-0.0	-0.0	-0.0	-0.0	-0.0	-0.0	-0.0	-0.0	-0.0	-0.0	-0.0
0.456	-0.0	-0.0	-0.0	10.170654296875	-7.484332084655762	-623.7131958007812	-0.0	-0.0	-0.0	-0.0	-0.0	-0.0	-0.0	-0.0	-0.0	-0.0	-0.0	-0.0
0.4565	-0.0	-0.0	-0.0	11.064491271972656	-7.491129398345947	-623.3790893554688	-0.0	-0.0	-0.0	-0.0	-0.0	-0.0	-0.0	-0.0	-0.0	-0.0	-0.0	-0.0
0.457	-0.0	-0.0	-0.0	11.602608680725098	-7.931558132171631	-628.6602783203125	-0.0	-0.0	-0.0	-0.0	-0.0	-0.0	-0.0	-0.0	-0.0	-0.0	-0.0	-0.0
0.4575	-0.0	-0.0	-0.0	13.11394500732422	-8.37729549407959	-627.959716796875	-0.0	-0.0	-0.0	-0.0	-0.0	-0.0	-0.0	-0.0	-0.0	-0.0	-0.0	-0.0
0.458	-0.0	-0.0	-0.0	13.47254467010498	-7.665653705596924	-629.3580322265625	-0.0	-0.0	-0.0	-0.0	-0.0	-0.0	-0.0	-0.0	-0.0	-0.0	-0.0	-0.0
0.4585	-0.0	-0.0	-0.0	13.741350173950195	-7.664115905761719	-627.24462890625	-0.0	-0.0	-0.0	-0.0	-0.0	-0.0	-0.0	-0.0	-0.0	-0.0	-0.0	-0.0
0.459	-0.0	-0.0	-0.0	14.36227798461914	-6.596263408660889	-626.1806640625	-0.0	-0.0	-0.0	-0.0	-0.0	-0.0	-0.0	-0.0	-0.0	-0.0	-0.0	-0.0
0.4595	-0.0	-0.0	-0.0	15.077513694763184	-5.614747047424316	-620.537109375	-0.0	-0.0	-0.0	-0.0	-0.0	-0.0	-0.0	-0.0	-0.0	-0.0	-0.0	-0.0
0.46	-0.0	-0.0	-0.0	16.681598663330078	-4.635164260864258	-618.4188232421875	-0.0	-0.0	-0.0	-0.0	-0.0	-0.0	-0.0	-0.0	-0.0	-0.0	-0.0	-0.0
0.4605	-0.0	-0.0	-0.0	17.127822875976562	-4.187790870666504	-615.2388916015625	-0.0	-0.0	-0.0	-0.0	-0.0	-0.0	-0.0	-0.0	-0.0	-0.0	-0.0	-0.0
0.461	-0.0	-0.0	-0.0	16.68198585510254	-2.584629774093628	-612.7656860351562	-0.0	-0.0	-0.0	-0.0	-0.0	-0.0	-0.0	-0.0	-0.0	-0.0	-0.0	-0.0
0.4615	-0.0	-0.0	-0.0	16.771610260009766	-1.604245662689209	-613.4730834960938	-0.0	-0.0	-0.0	-0.0	-0.0	-0.0	-0.0	-0.0	-0.0	-0.0	-0.0	-0.0
0.462	-0.0	-0.0	-0.0	18.10955238342285	-0.2674943208694458	-608.882080078125	-0.0	-0.0	-0.0	-0.0	-0.0	-0.0	-0.0	-0.0	-0.0	-0.0	-0.0	-0.0
0.4625	-0.0	-0.0	-0.0	17.574174880981445	0.0006899237632751	-608.1786499023438	-0.0	-0.0	-0.0	-0.0	-0.0	-0.0	-0.0	-0.0	-0.0	-0.0	-0.0	-0.0
0.463	-0.0	-0.0	-0.0	15.257210731506348	1.7824500799179075	-606.414306640625	-0.0	-0.0	-0.0	-0.0	-0.0	-0.0	-0.0	-0.0	-0.0	-0.0	-0.0	-0.0
0.4635	-0.0	-0.0	-0.0	13.916378021240234	3.3874168395996094	-607.4676513671875	-0.0	-0.0	-0.0	-0.0	-0.0	-0.0	-0.0	-0.0	-0.0	-0.0	-0.0	-0.0
0.464	-0.0	-0.0	-0.0	12.04396629333496	4.724457740783691	-607.117431640625	-0.0	-0.0	-0.0	-0.0	-0.0	-0.0	-0.0	-0.0	-0.0	-0.0	-0.0	-0.0
0.4645	-0.0	-0.0	-0.0	11.418612480163574	6.326595783233643	-604.302734375	-0.0	-0.0	-0.0	-0.0	-0.0	-0.0	-0.0	-0.0	-0.0	-0.0	-0.0	-0.0
0.465	-0.0	-0.0	-0.0	10.08119297027588	6.951360702514648	-608.8773803710938	-0.0	-0.0	-0.0	-0.0	-0.0	-0.0	-0.0	-0.0	-0.0	-0.0	-0.0	-0.0
0.4655	-0.0	-0.0	-0.0	8.830495834350586	7.220458030700684	-609.9435424804688	-0.0	-0.0	-0.0	-0.0	-0.0	-0.0	-0.0	-0.0	-0.0	-0.0	-0.0	-0.0
0.466	-0.0	-0.0	-0.0	7.852978229522705	7.13043212890625	-612.41015625	-0.0	-0.0	-0.0	-0.0	-0.0	-0.0	-0.0	-0.0	-0.0	-0.0	-0.0	-0.0
0.4665	-0.0	-0.0	-0.0	7.316388607025146	7.040175914764404	-613.8134155273438	-0.0	-0.0	-0.0	-0.0	-0.0	-0.0	-0.0	-0.0	-0.0	-0.0	-0.0	-0.0
0.467	-0.0	-0.0	-0.0	7.136218547821045	7.305583477020264	-617.709228515625	-0.0	-0.0	-0.0	-0.0	-0.0	-0.0	-0.0	-0.0	-0.0	-0.0	-0.0	-0.0
0.4675	-0.0	-0.0	-0.0	5.98058032989502	6.593565940856934	-619.8170776367188	-0.0	-0.0	-0.0	-0.0	-0.0	-0.0	-0.0	-0.0	-0.0	-0.0	-0.0	-0.0
